<svg xmlns="http://www.w3.org/2000/svg" viewBox="0 0 160 160"><defs><linearGradient id="cloth" x2=".8" y2="1"><stop stop-color="#bbe6ef"/><stop offset="1" stop-color="#377d9b"/></linearGradient></defs><path d="M49 16L23 27 8 61 29 74 39 55 33 132Q80 152 127 132L121 55 132 74 152 61 137 27 111 16Q80 30 49 16Z" fill="url(#cloth)" stroke="#413930" stroke-width="5" stroke-linejoin="round"/><path d="M40 53L45 129Q80 142 115 129L120 53" fill="none" stroke="#f5f6e8" stroke-width="2" opacity=".65"/><path d="M45 24Q80 52 116 24L122 38Q80 65 39 38Z" fill="#f8f2dc" stroke="#b9b6a8" stroke-width="3"/><path d="M80 61V104M59 72L101 94M59 94L101 72M72 65L80 73 88 65M72 100L80 92 88 100" fill="none" stroke="#ecffff" stroke-width="4"/><path d="M35 120Q80 134 125 120L126 132Q80 147 34 132Z" fill="#49382a"/><rect x="70" y="126" width="22" height="14" rx="3" fill="#f5f6e8" stroke="#5e482d" stroke-width="3"/><circle cx="30" cy="37" r="3" fill="#f5f6e8"/><circle cx="130" cy="37" r="3" fill="#f5f6e8"/></svg>
