<svg xmlns="http://www.w3.org/2000/svg" viewBox="0 0 160 100"><defs><linearGradient id="fabric" x2=".2" y2="1"><stop stop-color="#d9bdff"/><stop offset="1" stop-color="#9e78dc"/></linearGradient></defs><path d="M43 8Q29 9 17 22L5 44 24 58 34 45Q21 68 33 88Q48 98 80 95Q115 98 130 87Q140 68 128 45L138 58 155 44 144 22Q133 9 117 8L101 16Q80 25 59 16Z" fill="url(#fabric)" stroke="#493d32" stroke-width="4" stroke-linejoin="round"/><path d="M58 13Q62 28 80 32Q98 28 102 13M80 32V91" fill="none" stroke="#685448" stroke-width="3"/><path d="M39 43Q49 46 61 44V61Q50 66 39 60ZM99 44Q111 46 123 43V60Q112 66 99 61Z" fill="#9e78dc" stroke="#685448" stroke-width="2"/><path d="M29 77Q80 88 132 77L130 85Q80 96 32 85Z" fill="#674930"/><rect x="72" y="81" width="17" height="10" rx="2" fill="#e4c278" stroke="#735232" stroke-width="2"/><path d="M80 39L85 50 98 52 88 60 91 73 80 66 69 73 72 60 62 52 75 50Z" fill="#f8efff" stroke="#675184" stroke-width="2"/></svg>
